<svg width="284" height="280" viewBox="0 0 284 280" fill="none" xmlns="http://www.w3.org/2000/svg">
<circle cx="78.5" cy="163.5" r="32.5" stroke="#14A2A2" stroke-width="10"/>
<path d="M81.7457 218.259C40.2887 214.405 15.3081 254.481 8 275H153C146.522 257.692 123.203 222.113 81.7457 218.259Z" stroke="#14A2A2" stroke-width="10"/>
<path d="M131.941 189.623C146.876 196.709 163.746 198.951 180.27 196.047C196.794 193.142 212.176 185.23 224.337 173.381C236.498 161.531 244.852 146.315 248.269 129.789C251.687 113.263 250.004 96.2229 243.448 80.9726C236.891 65.7222 225.777 52.9965 211.608 44.5151C197.438 36.0337 180.897 32.2056 164.218 33.5481C147.54 34.8905 131.529 41.3389 118.349 52.0217C105.169 62.7045 95.4554 77.1066 90.521 93.2819" stroke="#FF0000" stroke-width="10"/>
<path d="M157.666 139.39V138.71C157.742 131.501 158.497 125.764 159.931 121.499C161.365 117.234 163.403 113.781 166.045 111.139C168.688 108.497 171.858 106.062 175.557 103.835C177.784 102.476 179.784 100.872 181.558 99.0229C183.332 97.1357 184.728 94.9655 185.748 92.5122C186.804 90.0588 187.333 87.3413 187.333 84.3596C187.333 80.6607 186.465 77.4525 184.728 74.735C182.992 72.0174 180.671 69.9227 177.765 68.4507C174.859 66.9787 171.631 66.2427 168.084 66.2427C164.989 66.2427 162.007 66.8843 159.138 68.1676C156.27 69.4509 153.873 71.4702 151.948 74.2254C150.023 76.9807 148.91 80.5852 148.608 85.039H134.341C134.643 78.6226 136.304 73.1309 139.323 68.5639C142.38 63.997 146.4 60.5057 151.382 58.0901C156.402 55.6745 161.969 54.4667 168.084 54.4667C174.726 54.4667 180.501 55.7877 185.408 58.4298C190.352 61.0718 194.164 64.6952 196.844 69.2999C199.562 73.9046 200.92 79.151 200.92 85.039C200.92 89.1907 200.279 92.9462 198.996 96.3054C197.75 99.6646 195.938 102.665 193.56 105.307C191.22 107.949 188.39 110.289 185.068 112.328C181.747 114.403 179.086 116.593 177.085 118.895C175.085 121.159 173.632 123.858 172.726 126.991C171.82 130.124 171.33 134.03 171.254 138.71V139.39H157.666ZM164.913 172.906C162.12 172.906 159.723 171.906 157.723 169.905C155.723 167.905 154.722 165.508 154.722 162.715C154.722 159.922 155.723 157.525 157.723 155.525C159.723 153.525 162.12 152.524 164.913 152.524C167.706 152.524 170.103 153.525 172.103 155.525C174.104 157.525 175.104 159.922 175.104 162.715C175.104 164.565 174.632 166.263 173.689 167.81C172.783 169.358 171.556 170.603 170.009 171.547C168.499 172.453 166.8 172.906 164.913 172.906Z" fill="#FF0000"/>
</svg>
